<svg xmlns="http://www.w3.org/2000/svg" width="158" height="24" viewBox="0 0 158 24" fill="none">
  <g clip-path="url(#clip0_257_2516)">
    <path d="M27.4886 0.824219H3.5715C2.44639 0.824219 1.54407 1.71532 1.54407 2.82644V20.1533C1.54407 21.2644 2.44639 22.1555 3.5715 22.1555H27.4886C28.6137 22.1555 29.516 21.2644 29.516 20.1533V2.82644C29.516 1.72632 28.6137 0.824219 27.4886 0.824219ZM15.5245 13.9266C14.1654 13.9266 13.0626 12.8375 13.0626 11.4954C13.0626 10.1532 14.1654 9.06411 15.5245 9.06411C16.8835 9.06411 17.9863 10.1532 17.9863 11.4954C17.9863 12.8375 16.8835 13.9266 15.5245 13.9266ZM5.95541 11.4954V14.4987H4.02823V8.49205H5.95541V11.4954ZM4.02823 16.4239H7.90487V11.4954V6.56684H4.02823V3.45351H14.5553V7.24891C12.5947 7.68896 11.1243 9.41615 11.1243 11.4844C11.1243 13.5526 12.5947 15.2908 14.5553 15.7308V19.5262H4.02823V16.4239ZM16.5048 19.5372V15.7418C18.4654 15.3018 19.9358 13.5746 19.9358 11.4954C19.9358 9.42715 18.4654 7.68896 16.5048 7.25991V3.4645H27.0318V6.57784H23.1552V11.5064V16.4349H27.0318V19.5482H16.5048V19.5372ZM25.1047 11.4954V8.49205H27.0318V14.4987H25.1047V11.4954Z" fill="#4267B3"/>
    <mask id="mask0_257_2516" style="mask-type:luminance" maskUnits="userSpaceOnUse" x="-9" y="-15" width="177" height="53">
      <path d="M167.429 -14.5312H-8.60663V37.5205H167.429V-14.5312Z" fill="white"/>
    </mask>
    <g mask="url(#mask0_257_2516)">
      <path d="M45.8692 13.7954C45.8692 15.3906 44.5547 16.7547 41.948 16.7547C40.4998 16.7547 39.0628 16.5127 37.726 15.1485L38.84 13.5534C39.4861 14.2685 40.9677 14.7965 41.9925 14.8185C42.8392 14.8405 43.6412 14.4005 43.6412 13.7404C43.6412 13.1133 43.1177 12.8603 41.8254 12.7943C40.0988 12.6623 38.0491 12.0462 38.0491 9.99999C38.0491 7.90977 40.2325 7.18368 41.9034 7.18368C43.3293 7.18368 44.3987 7.45871 45.457 8.37181L44.1982 9.83497C43.5521 9.22991 42.8057 9.03188 41.9368 9.03188C40.8674 9.03188 40.2659 9.36192 40.2659 9.92298C40.2659 10.506 40.8006 10.8361 41.9703 10.9131C43.6746 11.0231 45.8692 11.4081 45.8692 13.7954ZM51.6619 14.5435C50.96 14.5435 50.481 14.1254 50.481 13.2673V9.37292H53.0098V7.44771H50.4922V4.89544L48.2308 5.13747V7.45871H46.5264V9.38392H48.2308V13.2783C48.2308 15.5226 49.523 16.6447 51.5059 16.5677C52.1854 16.5457 52.7313 16.4357 53.3774 16.1827L52.7424 14.2795C52.4193 14.4445 52.0183 14.5435 51.6619 14.5435ZM61.9438 7.43671H64.105V16.4577H61.9773L61.8659 15.1375C61.3423 16.1937 59.9164 16.7107 58.9027 16.7327C56.1957 16.7547 54.2017 15.1045 54.2017 11.9362C54.2017 8.82286 56.296 7.19468 58.9584 7.21669C60.1838 7.21669 61.3423 7.78875 61.8659 8.67985L61.9438 7.43671ZM59.1589 9.2079C57.655 9.2079 56.4519 10.209 56.4519 11.9362C56.4519 13.6524 57.655 14.6755 59.1589 14.6755C62.7125 14.6755 62.7125 9.2079 59.1589 9.2079ZM73.2396 3.6633H75.5009V16.4467H73.3955L73.2507 15.2035C72.5489 16.2817 71.4126 16.6447 70.3098 16.6447C67.6251 16.6447 65.6088 14.8845 65.6088 11.9252C65.6088 8.81186 67.5917 7.20569 70.2541 7.20569C71.2121 7.20569 72.716 7.72274 73.2507 8.64684V3.6633H73.2396ZM73.0836 11.9362C73.0836 10.363 71.8582 9.30691 70.4323 9.30691C68.9842 9.30691 67.8368 10.308 67.8368 11.9362C67.8368 13.5094 68.9842 14.5875 70.4323 14.5875C71.8694 14.5875 73.0836 13.5644 73.0836 11.9362ZM77.4615 16.4467H79.7229V7.39271H77.4615V16.4467ZM77.2499 4.89544C77.2499 6.63363 79.9123 6.63363 79.9123 4.89544C79.9234 3.15725 77.2499 3.15725 77.2499 4.89544ZM88.6013 12.0462C88.6013 13.4214 87.6544 14.5655 86.2731 14.5655C84.8249 14.5655 84.0674 13.5204 84.0674 12.1562V7.43671H81.806V12.1782C81.806 14.9725 83.399 16.6007 85.5824 16.6007C86.8635 16.6007 87.7324 16.1607 88.6793 15.2476L88.8241 16.4687H90.8404V7.43671H88.6013V12.0462ZM103.272 7.3047C102.092 7.3047 101.033 7.66774 100.22 8.95488C99.6965 7.71174 98.6048 7.27169 97.5131 7.27169C96.6442 7.27169 95.5859 7.60173 95.1069 8.51483L94.9398 7.41471H92.8455V16.4467H95.1069V11.6172C95.1069 10.429 95.831 9.35092 97.0564 9.35092C98.2929 9.35092 98.9278 10.429 98.9278 11.6172V16.4467H101.189V11.6172C101.189 10.429 101.947 9.38392 103.172 9.38392C104.397 9.38392 104.899 10.385 104.899 11.5732V16.4357H107.16V11.5732C107.149 8.87787 105.868 7.3047 103.272 7.3047ZM108.831 7.43671V9.47193H113.242L108.196 16.4577H116.651V14.2574H112.318L117.297 7.43671H108.831ZM117.843 15.3026C117.843 17.0407 120.506 17.0407 120.506 15.3026C120.517 13.5644 117.843 13.5644 117.843 15.3026ZM126.421 14.5875C125.017 14.5875 123.825 13.6744 123.825 11.9582C123.825 10.385 124.939 9.28491 126.454 9.28491C127.089 9.28491 127.746 9.52694 128.292 9.99999L129.718 8.51483C128.716 7.54673 127.713 7.18368 126.421 7.18368C123.769 7.18368 121.564 8.75686 121.564 11.9582C121.564 15.1595 123.769 16.7327 126.421 16.7327C127.769 16.7327 128.883 16.3257 129.941 15.3026L128.426 13.8394C127.869 14.3785 127.145 14.5875 126.421 14.5875ZM140.201 11.9472C140.201 14.5435 138.407 16.6447 135.444 16.6447C132.481 16.6447 130.698 14.5435 130.698 11.9472C130.698 9.37292 132.514 7.24969 135.422 7.24969C138.329 7.24969 140.201 9.37292 140.201 11.9472ZM137.928 11.9472C137.928 10.594 136.97 9.27391 135.444 9.27391C133.818 9.27391 132.96 10.594 132.96 11.9472C132.96 13.3223 133.795 14.5985 135.444 14.5985C137.093 14.5985 137.928 13.3223 137.928 11.9472ZM152.187 7.3047C151.006 7.3047 149.948 7.66774 149.135 8.95488C148.611 7.71174 147.519 7.27169 146.428 7.27169C145.559 7.27169 144.501 7.60173 144.022 8.51483L143.854 7.41471H141.76V16.4467H144.022V11.6172C144.022 10.429 144.746 9.35092 145.971 9.35092C147.208 9.35092 147.843 10.429 147.843 11.6172V16.4467H150.104V11.6172C150.104 10.429 150.861 9.38392 152.087 9.38392C153.312 9.38392 153.813 10.385 153.813 11.5732V16.4357H156.075V11.5732C156.052 8.87787 154.771 7.3047 152.187 7.3047Z" fill="white"/>
    </g>
  </g>
  <defs>
    <clipPath id="clip0_257_2516">
      <rect width="157" height="23" fill="white" transform="translate(0.5 0.0566406)"/>
    </clipPath>
  </defs>
</svg>