<svg xmlns="http://www.w3.org/2000/svg" width="31" height="23"  viewBox="0 0 51 43" fill="none">
		<path opacity="0.1" d="M28.0113 0.150391H2.90239C1.72121 0.150391 0.773926 1.09768 0.773926 2.27886V20.6983C0.773926 21.8794 1.72121 22.8267 2.90239 22.8267H28.0113C29.1924 22.8267 30.1397 21.8794 30.1397 20.6983V2.27886C30.1397 1.10937 29.1924 0.150391 28.0113 0.150391ZM15.451 14.079C14.0242 14.079 12.8664 12.9212 12.8664 11.4944C12.8664 10.0676 14.0242 8.90985 15.451 8.90985C16.8778 8.90985 18.0355 10.0676 18.0355 11.4944C18.0355 12.9212 16.8778 14.079 15.451 14.079ZM5.40509 11.4944V14.6871H3.38188V8.30171H5.40509V11.4944ZM3.38188 16.7337H7.45169V11.4944V6.25511H3.38188V2.94547H14.4335V6.98019C12.3752 7.44799 10.8315 9.28408 10.8315 11.4827C10.8315 13.6813 12.3752 15.5291 14.4335 15.9969V20.0317H3.38188V16.7337ZM16.4801 20.0433V16.0086C18.5384 15.5408 20.0821 13.7047 20.0821 11.4944C20.0821 9.29577 18.5384 7.44799 16.4801 6.99189V2.95716H27.5318V6.2668H23.462V11.5061V16.7454H27.5318V20.055H16.4801V20.0433ZM25.5086 11.4944V8.30171H27.5318V14.6871H25.5086V11.4944Z" fill="white"/>
</svg>